<svg xmlns="http://www.w3.org/2000/svg" width="512" height="512" viewBox="0 0 512 512">
  <defs>
    <linearGradient id="bg" x1="0%" y1="100%" x2="100%" y2="0%">
      <stop offset="0%" stop-color="#ff9409" />
      <stop offset="100%" stop-color="#ee2c3c" />
    </linearGradient>
    <filter id="softGlow" x="-20%" y="-20%" width="140%" height="140%">
      <feGaussianBlur stdDeviation="18" />
    </filter>
  </defs>
  <rect width="512" height="512" rx="82" fill="url(#bg)" />
  <rect x="14" y="14" width="484" height="484" rx="72" fill="none" stroke="rgba(255,230,220,0.35)" stroke-width="4" />
  <ellipse cx="212" cy="170" rx="130" ry="110" fill="#ffb347" opacity="0.18" filter="url(#softGlow)" />
  <ellipse cx="300" cy="264" rx="72" ry="72" fill="#ffd6c9" opacity="0.16" filter="url(#softGlow)" />
  <path d="M126 246 A130 130 0 0 1 386 246" fill="none" stroke="#ffd6c9" stroke-width="34" stroke-linecap="round" />
  <path d="M138 250 A118 118 0 0 1 374 250" fill="none" stroke="#ffc0b5" stroke-width="8" stroke-linecap="round" opacity="0.75" />
  <rect x="100" y="236" width="80" height="166" rx="40" fill="#ffc0b5" opacity="0.95" />
  <rect x="332" y="236" width="80" height="166" rx="40" fill="#ffc0b5" opacity="0.95" />
  <rect x="118" y="268" width="58" height="114" rx="28" fill="#9f1d35" opacity="0.92" />
  <rect x="336" y="268" width="58" height="114" rx="28" fill="#9f1d35" opacity="0.92" />
  <circle cx="256" cy="229" r="44" fill="#ff9f7c" opacity="0.72" />
</svg>
