<svg xmlns="http://www.w3.org/2000/svg" width="1024" height="500" viewBox="0 0 1024 500">
  <defs>
    <linearGradient id="bg" x1="0%" y1="100%" x2="100%" y2="0%">
      <stop offset="0%" stop-color="#ff8b0d" />
      <stop offset="100%" stop-color="#9e1738" />
    </linearGradient>
    <filter id="blur" x="-20%" y="-20%" width="140%" height="140%">
      <feGaussianBlur stdDeviation="28" />
    </filter>
  </defs>
  <rect width="1024" height="500" fill="url(#bg)" />
  <rect x="40" y="40" width="944" height="420" rx="42" fill="none" stroke="rgba(255,230,220,0.22)" stroke-width="3" />
  <ellipse cx="235" cy="180" rx="180" ry="130" fill="#ffb347" opacity="0.22" filter="url(#blur)" />
  <ellipse cx="760" cy="170" rx="260" ry="140" fill="#ffd6c9" opacity="0.12" filter="url(#blur)" />
  <g transform="translate(76,70) scale(0.703125)">
    <rect width="512" height="512" rx="82" fill="url(#bg)" />
    <rect x="14" y="14" width="484" height="484" rx="72" fill="none" stroke="rgba(255,230,220,0.35)" stroke-width="4" />
    <ellipse cx="212" cy="170" rx="130" ry="110" fill="#ffb347" opacity="0.18" filter="url(#blur)" />
    <ellipse cx="300" cy="264" rx="72" ry="72" fill="#ffd6c9" opacity="0.16" filter="url(#blur)" />
    <path d="M126 246 A130 130 0 0 1 386 246" fill="none" stroke="#ffd6c9" stroke-width="34" stroke-linecap="round" />
    <path d="M138 250 A118 118 0 0 1 374 250" fill="none" stroke="#ffc0b5" stroke-width="8" stroke-linecap="round" opacity="0.75" />
    <rect x="100" y="236" width="80" height="166" rx="40" fill="#ffc0b5" opacity="0.95" />
    <rect x="332" y="236" width="80" height="166" rx="40" fill="#ffc0b5" opacity="0.95" />
    <rect x="118" y="268" width="58" height="114" rx="28" fill="#9f1d35" opacity="0.92" />
    <rect x="336" y="268" width="58" height="114" rx="28" fill="#9f1d35" opacity="0.92" />
    <circle cx="256" cy="229" r="44" fill="#ff9f7c" opacity="0.72" />
  </g>
  <text x="488" y="160" fill="#fff7f2" font-size="58" font-family="Avenir Next Condensed, Arial, sans-serif" font-weight="700">HEARTBEAT MUSIC</text>
  <text x="500" y="220" fill="#ffe9e0" font-size="28" font-family="Avenir Next, Arial, sans-serif">Music, radio, offline playlists,</text>
  <text x="500" y="256" fill="#ffe9e0" font-size="28" font-family="Avenir Next, Arial, sans-serif">lyrics, and visualizer.</text>
  <g font-family="Avenir Next, Arial, sans-serif" font-size="24" fill="#fffaf6">
    <rect x="500" y="322" width="112" height="42" rx="21" fill="rgba(255,245,238,0.22)" stroke="rgba(255,236,225,0.45)" stroke-width="2" />
    <text x="525" y="350">MUSIC</text>
    <rect x="624" y="322" width="110" height="42" rx="21" fill="rgba(255,245,238,0.22)" stroke="rgba(255,236,225,0.45)" stroke-width="2" />
    <text x="651" y="350">RADIO</text>
    <rect x="746" y="322" width="128" height="42" rx="21" fill="rgba(255,245,238,0.22)" stroke="rgba(255,236,225,0.45)" stroke-width="2" />
    <text x="770" y="350">OFFLINE</text>
    <rect x="886" y="322" width="106" height="42" rx="21" fill="rgba(255,245,238,0.22)" stroke="rgba(255,236,225,0.45)" stroke-width="2" />
    <text x="913" y="350">LYRICS</text>
  </g>
</svg>
